<?xml version="1.0" standalone="no"?>
<!DOCTYPE svg PUBLIC "-//W3C//DTD SVG 20010904//EN"
 "http://www.w3.org/TR/2001/REC-SVG-20010904/DTD/svg10.dtd">
<svg version="1.0" xmlns="http://www.w3.org/2000/svg"
 width="1024.000000pt" height="1024.000000pt" viewBox="0 0 1024.000000 1024.000000"
 preserveAspectRatio="xMidYMid meet">
<metadata>
Created by potrace 1.11, written by Peter Selinger 2001-2013
</metadata>
<g transform="translate(0.000000,1024.000000) scale(0.100000,-0.100000)"
fill="#000000" stroke="none">
<path d="M677 9582 c-12 -2 -17 -14 -17 -38 -1 -19 -1 -2021 -1 -4449 0 -2428
0 -4419 1 -4425 0 -12 8920 -14 8921 -2 0 9 0 8859 0 8892 l-1 25 -4443 0
c-2444 0 -4451 -1 -4460 -3z m2908 -1534 c0 -917 -3 -1389 -10 -1391 -20 -6
-2750 -1 -2760 5 -7 4 -10 475 -9 1390 1 760 2 1383 3 1383 0 0 625 0 1389 0
l1387 0 0 -1387z m2923 -3 l-3 -1390 -1385 0 -1385 1 -3 1389 -2 1390 1390 0
1390 1 -2 -1391z m2927 3 c0 -764 -2 -1388 -5 -1389 -25 -5 -2740 -3 -2755 2
-20 6 -20 16 -20 1390 l0 1385 1390 -1 1390 0 0 -1387z m-5853 -1550 c2 -7 4
-632 3 -1388 l0 -1375 -1390 0 -1390 0 0 1388 0 1387 1386 0 c1101 0 1388 -3
1391 -12z m2928 -1378 l0 -1390 -1390 0 -1390 0 0 1390 0 1390 1390 0 1390 0
0 -1390z m2925 3 l0 -1388 -1387 -3 c-764 -1 -1389 1 -1389 5 -4 23 -4 2750
-1 2761 3 9 290 12 1391 12 l1386 0 0 -1387z m-5854 -1543 c3 -13 4 -2738 1
-2755 -3 -20 -10 -20 -1388 -20 -915 0 -1384 3 -1385 10 -3 23 -5 2751 -2
2760 3 10 2772 15 2774 5z m2927 -1385 l2 -1390 -1382 1 c-761 1 -1386 2
-1390 3 -8 1 -11 2764 -4 2772 2 2 627 4 1388 4 l1383 0 3 -1390z m2923 1385
c1 -3 2 -627 3 -1387 1 -918 -2 -1383 -9 -1384 -32 -4 -2765 -3 -2766 1 -5 22
-3 2766 2 2770 9 7 2769 7 2770 0z"/>
<path d="M5000 9208 c-157 -18 -245 -42 -378 -104 -155 -71 -327 -207 -420
-333 -15 -20 -29 -38 -32 -41 -28 -27 -119 -198 -150 -283 -19 -54 -44 -145
-55 -207 -14 -80 -14 -297 1 -384 94 -565 585 -980 1159 -979 64 0 178 10 215
19 260 60 449 162 617 335 167 171 264 362 319 624 13 67 13 301 -1 380 -82
455 -397 809 -833 936 -135 39 -306 53 -442 37z"/>
<path d="M7885 6279 c-529 -80 -926 -481 -998 -1009 -71 -519 224 -1028 711
-1231 137 -57 251 -80 412 -84 159 -5 243 6 387 50 76 23 288 124 303 143 3 4
30 26 60 48 142 107 261 253 338 415 43 90 86 219 96 284 3 22 9 58 12 79 10
61 11 195 3 267 -12 104 -19 139 -55 247 -134 409 -477 705 -910 785 -85 16
-274 19 -359 6z"/>
<path d="M2127 3364 c-1 -1 -31 -5 -67 -8 -149 -15 -338 -79 -474 -162 -284
-173 -491 -478 -546 -805 -14 -80 -17 -289 -6 -354 84 -500 425 -871 901 -980
332 -77 698 2 970 209 69 53 191 180 245 257 241 342 281 785 106 1164 -168
363 -531 628 -921 671 -56 6 -204 12 -208 8z"/>
<path d="M5040 3362 c-256 -20 -523 -132 -694 -291 -85 -79 -107 -104 -169
-186 -102 -136 -191 -350 -214 -512 -14 -103 -9 -321 11 -413 105 -501 531
-885 1026 -928 159 -13 291 -3 421 32 328 89 601 314 749 620 48 98 90 224
105 316 10 58 12 302 3 360 -15 97 -20 118 -49 204 -121 363 -418 650 -784
754 -127 36 -285 54 -405 44z"/>
<path d="M7967 3364 c-1 -1 -29 -5 -62 -8 -577 -64 -1029 -574 -1028 -1161 0
-229 63 -443 188 -637 288 -446 848 -641 1354 -471 290 97 540 317 677 595
133 268 155 591 60 881 -133 404 -489 710 -909 783 -70 12 -272 25 -280 18z"/>
</g>
</svg>
